# xmcd
#
# Track frame offsets:
#	182
#	12342
#	27507
#	40885
#	52752
#	62762
#	73315
#	86897
#	97777
#	110260
#	124567
#	135995
#	149397
#	163037
#	175512
#
# Disc length: 2537 seconds
#
# Revision: 2
# Processed by: cddbd v1.5PL3 Copyright (c) Steve Scherf et al.
# Submitted via: audiograbber 1.83.01
#
DISCID=c209e70f
DTITLE=Muddy Waters - Greatest Hits
DYEAR=1900
DGENRE=Blues
TTITLE0=The Stuff You Gotta Watch
TTITLE1=Iodine In My Coffee
TTITLE2=Close To You
TTITLE3=You Gonna Miss Me
TTITLE4=Mean Red Spider
TTITLE5=Diamonds At You Feet
TTITLE6=You Gonna Need My Help
TTITLE7=She's All Right
TTITLE8=So Glad I'm Living
TTITLE9=One More Mile
TTITLE10=I Can't Call Her Sugar
TTITLE11=You Can't Lose What You Ain't Never Had
TTITLE12=Sad Better
TTITLE13=I Can't Be Satisfied
TTITLE14=Baby Please Don't Go
EXTD=
EXTT0=
EXTT1=
EXTT2=
EXTT3=
EXTT4=
EXTT5=
EXTT6=
EXTT7=
EXTT8=
EXTT9=
EXTT10=
EXTT11=
EXTT12=
EXTT13=
EXTT14=
PLAYORDER=
